<svg xmlns="http://www.w3.org/2000/svg" width="54.999" height="67"><path data-name="Clipboard Verification Symbol. Attribute as Freepik from Flaticon.com" d="M28.01 4.786h-1.486a1.432 1.432 0 01-1.438-1.426v-.048A3.325 3.325 0 0021.747.001h-.077a3.325 3.325 0 00-3.338 3.311v.048a1.432 1.432 0 01-1.438 1.426h-1.485a2.854 2.854 0 00-2.866 2.843v.057a2.854 2.854 0 002.866 2.843h12.6a2.855 2.855 0 002.866-2.843v-.057a2.855 2.855 0 00-2.865-2.843zm-6.3 0a1.436 1.436 0 111.447-1.436 1.442 1.442 0 01-1.447 1.436zM28.154 60.3H3.859a3.844 3.844 0 01-3.86-3.828V10.529c0-2.115 1.728-3.829 2.895-3.829h7.82a4.91 4.91 0 00-.1.987 4.782 4.782 0 004.8 4.757h12.6a4.794 4.794 0 004.8-4.815 4.726 4.726 0 00-.094-.928h5.879c3.1 0 4.824 1.714 4.824 3.829v28.762c-.321-.02-.639-.048-.965-.048a15.469 15.469 0 00-3.859.5V17.225H4.824v38.286h22.241a15.093 15.093 0 001.088 4.789zm14.3-18.186a12.443 12.443 0 1012.545 12.443 12.493 12.493 0 00-12.544-12.443zm8.2 9.886l-7.719 8.615a1.942 1.942 0 01-2.648.222l-4.825-3.829a1.9 1.9 0 01-.3-2.69 1.939 1.939 0 012.712-.3l3.394 2.693 6.5-7.256a1.94 1.94 0 012.724-.159A1.9 1.9 0 0150.651 52zm-16.88-18.5H8.684a.961.961 0 01-.965-.957v-.957a.961.961 0 01.965-.957h25.087a.961.961 0 01.965.957v.957a.961.961 0 01-.965.957zm0-8.614H8.684a.961.961 0 01-.965-.957v-.958a.961.961 0 01.965-.957h25.087a.961.961 0 01.965.957v.958a.961.961 0 01-.965.956zM28.95 41.157H8.684a.961.961 0 01-.965-.957v-.957a.961.961 0 01.965-.957h20.263a.961.961 0 01.965.957v.957a.961.961 0 01-.966.957zm-1.93 8.615H8.684a.961.961 0 01-.965-.957v-.957a.961.961 0 01.965-.957h18.333a.961.961 0 01.965.957v.957a.961.961 0 01-.965.956z" fill="#84bc22"/></svg>