<svg xmlns="http://www.w3.org/2000/svg" width="58.996" height="67.003"><path data-name="Delivery Packages On A Trolley. Attribute as Freepik from Flaticon.com" d="M.365 11.556a7.243 7.243 0 0113.757-4.535l14.233 43.1a9.515 9.515 0 00-4.145-.157L10.431 8.235a3.356 3.356 0 00-6.374 2.1 1.944 1.944 0 01-3.692 1.217zm56.078 33.812l-23.32 7.688a9.513 9.513 0 011.9 3.316c.015.045.023.091.037.135l22.6-7.451a1.942 1.942 0 10-1.218-3.689zM33.177 56.982a7.635 7.635 0 11-9.643-4.855 7.627 7.627 0 019.643 4.855zm-3.625 1.195a3.817 3.817 0 10-2.429 4.818 3.818 3.818 0 002.429-4.819zm21-42.044l7.917 23.976a.971.971 0 01-.618 1.226L32.932 49.55a.972.972 0 01-1.227-.618l-7.917-23.976a.97.97 0 01.618-1.226l24.919-8.215a.972.972 0 011.224.617zm-3.3 13.927l-8.485-4.665-4.039 8.793 2.674 1.23 1.747-3.8 3.154 9.55 3.018-1-3.153-9.549 3.668 2.018zm-7.4-14.3L34.79.431a.622.622 0 00-.785-.4l-4.34 1.431-.021.039-.036-.02-2.29.755 1.886 5.71-2.583.852-1.886-5.711-2.291.755-.017.038-.041-.019-4.312 1.422a.621.621 0 00-.4.784l5.062 15.329a.622.622 0 00.785.4l15.932-5.252a.621.621 0 00.396-.789z" fill="#84bc22"/></svg>